HIERARCHY
ROOT hip
{
	OFFSET 0.000000 0.000000 0.000000 
	CHANNELS 6 Xposition Yposition Zposition Xrotation Zrotation Yrotation
	JOINT abdomen
	{
		OFFSET 0.000000 3.402643 0.000000 
		CHANNELS 3 Xrotation Zrotation Yrotation
		JOINT chest
		{
			OFFSET 0.000000 8.438565 -0.680529 
			CHANNELS 3 Xrotation Zrotation Yrotation
			JOINT neck
			{
				OFFSET 0.000000 10.207942 -0.272212 
				CHANNELS 3 Xrotation Zrotation Yrotation
				JOINT head
				{
					OFFSET 0.000000 3.130431 0.000000 
					CHANNELS 3 Xrotation Zrotation Yrotation
					End Site
					{
						OFFSET 0.000000 3.130435 0.000000 
					}
				}
			}
			JOINT lCollar
			{
				OFFSET 3.470700 6.669187 -0.816635 
				CHANNELS 3 Yrotation Zrotation Xrotation
				JOINT lShldr
				{
					OFFSET 3.198488 0.000000 0.000000 
					CHANNELS 3 Zrotation Yrotation Xrotation
					JOINT lForeArm
					{
						OFFSET 10.139888 0.000000 0.000000 
						CHANNELS 3 Yrotation Zrotation Xrotation
						JOINT lHand
						{
							OFFSET 8.370511 0.000000 0.000000 
							CHANNELS 3 Zrotation Yrotation Xrotation
							End Site
							{
								OFFSET 4.083176 0.000000 0.000000 
							}
						}
					}
				}
			}
			JOINT rCollar
			{
				OFFSET -3.470700 6.669187 -0.816635 
				CHANNELS 3 Yrotation Zrotation Xrotation
				JOINT rShldr
				{
					OFFSET -3.198488 0.000000 0.000000 
					CHANNELS 3 Zrotation Yrotation Xrotation
					JOINT rForeArm
					{
						OFFSET -10.139888 0.000000 0.000000 
						CHANNELS 3 Yrotation Zrotation Xrotation
						JOINT rHand
						{
							OFFSET -8.370511 0.000000 0.000000 
							CHANNELS 3 Zrotation Yrotation Xrotation
							End Site
							{
								OFFSET -4.083176 0.000000 0.000000 
							}
						}
					}
				}
			}
		}
	}
	JOINT lThigh
	{
		OFFSET 5.308129 -1.633274 1.361059 
		CHANNELS 3 Xrotation Zrotation Yrotation
		JOINT lShin
		{
			OFFSET -2.041588 -20.007561 0.000000 
			CHANNELS 3 Xrotation Zrotation Yrotation
			JOINT lFoot
			{
				OFFSET 0.000000 -19.190928 -1.224953 
				CHANNELS 3 Xrotation Yrotation Zrotation
				End Site
				{
					OFFSET 0.000000 -2.449906 4.627600 
				}
			}
		}
	}
	JOINT rThigh
	{
		OFFSET -5.308129 -1.633274 1.361059 
		CHANNELS 3 Xrotation Zrotation Yrotation
		JOINT rShin
		{
			OFFSET 2.041588 -20.007561 0.000000 
			CHANNELS 3 Xrotation Zrotation Yrotation
			JOINT rFoot
			{
				OFFSET 0.000000 -19.190928 -1.224953 
				CHANNELS 3 Xrotation Yrotation Zrotation
				End Site
				{
					OFFSET 0.000000 -2.449906 4.627600 
				}
			}
		}
	}
}
MOTION
Frames: 11
Frame Time: 0.033333
0.145230 39.414917 4.273870 -5.507905 0.136719 -0.039062 45.574577 7.295828 -30.447880 9.744081 -0.249553 -10.625112 -8.544920 -0.009766 -0.009767 3.021680 20.785437 27.896143 1.992188 -2.001953 0.000341 42.778214 -39.354645 -35.617996 -56.876980 -0.554578 8.630910 -9.029843 -40.128082 -139.396469 -2.001953 1.992188 0.000000 24.081881 107.174217 4.249125 67.472168 0.483022 8.731424 27.572313 -38.865990 -104.345924 -39.983246 7.976986 -0.744132 53.898258 0.024847 -3.637982 -9.238331 -1.577102 -5.681562 -2.811371 -9.412094 2.265440 48.019138 0.239590 3.357095 -40.421837 -3.396783 7.197476 
0.145230 39.413635 4.273870 -5.507905 0.136719 -0.039062 45.574577 7.295828 -30.447880 9.744081 -0.249553 -10.625112 -8.544920 -0.009766 -0.009767 3.021680 20.785437 27.896143 1.992188 -2.001953 0.000341 42.778214 -39.354645 -35.617996 -56.876980 -0.554578 8.630910 -9.029843 -40.128082 -139.396469 -2.001953 1.992188 0.000000 24.081881 107.174217 4.249125 67.472168 0.483022 8.731424 27.572313 -38.865990 -104.345924 -39.983246 7.976986 -0.744132 53.898258 0.024849 -3.637982 -9.238330 -1.577102 -5.681562 -2.811371 -9.412094 2.265440 48.019138 0.239590 3.357095 -40.421837 -3.396783 7.197476 
0.145230 39.412411 4.273870 -5.507905 0.136719 -0.039062 45.574577 7.295828 -30.447880 9.744081 -0.249553 -10.625112 -8.544920 -0.009766 -0.009767 3.021680 20.785437 27.896143 1.992188 -2.001953 0.000341 42.778214 -39.354645 -35.617996 -56.876980 -0.554578 8.630910 -9.029843 -40.128082 -139.396469 -2.001953 1.992188 0.000000 24.081881 107.174217 4.249125 67.472168 0.483022 8.731424 27.572313 -38.865990 -104.345924 -39.983246 7.976986 -0.744132 53.898258 0.024848 -3.637982 -9.238330 -1.577103 -5.681562 -2.811371 -9.412094 2.265440 48.019138 0.239590 3.357095 -40.421837 -3.396783 7.197476 
0.145230 39.411201 4.273870 -5.507905 0.136719 -0.039062 45.574577 7.295828 -30.447880 9.744081 -0.249553 -10.625112 -8.544920 -0.009766 -0.009767 3.021680 20.785437 27.896143 1.992188 -2.001953 0.000341 42.778214 -39.354645 -35.617996 -56.876980 -0.554578 8.630910 -9.029843 -40.128082 -139.396469 -2.001953 1.992188 0.000000 24.081881 107.174217 4.249125 67.472168 0.483022 8.731424 27.572313 -38.865990 -104.345924 -39.983246 7.976986 -0.744132 53.898258 0.024847 -3.637982 -9.238331 -1.577101 -5.681561 -2.811371 -9.412094 2.265440 48.019138 0.239590 3.357095 -40.421837 -3.396784 7.197476 
0.130203 39.456264 4.258843 -5.507905 0.136719 -0.039062 45.583088 7.215293 -29.563322 9.744081 -0.249553 -10.625112 -8.544920 -0.009766 -0.009767 2.670030 20.512089 27.089212 1.992188 -2.001953 0.000341 42.137985 -39.889690 -35.368843 -57.305573 -0.548398 8.638497 -9.160968 -39.947605 -139.195694 -2.001953 1.992188 0.000000 24.062046 106.128014 4.062023 67.569763 0.484651 8.727488 27.210064 -38.836971 -103.847511 -39.818085 7.938015 -0.703992 53.762047 0.005486 -3.631337 -9.258577 -1.573881 -5.626853 -2.566714 -9.458070 2.261429 47.698112 0.276074 3.328239 -40.332241 -3.396012 7.235265 
0.115172 39.501328 4.243812 -5.507905 0.136719 -0.039062 45.602901 7.139150 -28.679893 9.744081 -0.249553 -10.625112 -8.544920 -0.009766 -0.009767 2.332778 20.238987 26.285744 1.992188 -2.001953 0.000341 41.475079 -40.436466 -35.100712 -57.733822 -0.551217 8.648695 -9.282574 -39.768276 -139.015244 -2.001953 1.992188 0.000000 23.993526 105.076187 3.826599 67.676956 0.496199 8.732919 26.847204 -38.802845 -103.350342 -39.642975 7.899024 -0.664026 53.624352 0.013260 -3.650200 -9.279921 -1.532572 -5.575617 -2.331363 -9.503859 2.237683 47.376404 0.295669 3.311491 -40.232609 -3.419300 7.276579 
0.025016 39.538902 4.153656 -5.507905 0.136719 -0.039062 45.644295 6.770106 -24.646029 9.744081 -0.249553 -10.625112 -8.544920 -0.009766 -0.009767 0.853999 18.983778 22.622408 1.992188 -2.001953 0.000341 39.317688 -43.021946 -34.500156 -59.303608 -0.549190 8.659884 -9.758604 -39.071560 -138.349472 -2.001953 1.992188 0.000000 25.128895 100.583511 4.236634 67.999191 0.491737 8.739429 25.420433 -38.600834 -101.357819 -39.556583 7.723426 -0.535377 53.906921 0.032676 -3.663605 -9.632154 -1.463935 -5.371182 -1.845556 -9.706686 2.292170 46.937229 0.315178 3.298717 -40.291977 -3.501774 7.459520 
-0.065145 39.576420 4.063496 -5.507905 0.136719 -0.039062 45.653946 6.401651 -20.622627 9.744081 -0.249553 -10.625112 -8.544920 -0.009766 -0.009767 -0.525472 17.652224 19.025698 1.992188 -2.001953 0.000341 37.018669 -45.589130 -33.729111 -60.871822 -0.536045 8.673310 -10.232250 -38.361126 -137.688599 -2.001953 1.992188 0.000000 27.542683 96.092033 5.927695 68.311501 0.496809 8.746305 23.988127 -38.372593 -99.354073 -39.460537 7.548342 -0.416902 54.199596 0.054038 -3.666769 -9.976543 -1.396668 -5.176913 -1.366420 -9.890202 2.336617 46.488243 0.344523 3.289372 -40.341923 -3.565460 7.633756 
-0.220408 39.012913 3.908230 -5.507905 0.136719 -0.039062 45.634872 5.878084 -15.001606 9.744081 -0.249553 -10.625112 -8.544920 -0.009766 -0.009767 -2.196349 15.668833 13.989161 1.992188 -2.001953 0.000341 34.868107 -49.532101 -33.085148 -62.477695 -0.534256 8.690706 -10.808706 -37.452148 -136.976486 -2.001953 1.992188 0.000000 -76.072838 88.945984 -98.877892 68.321259 0.496966 8.745910 22.112381 -37.872143 -96.807106 -41.047565 7.322906 -0.366217 57.017063 0.229795 -3.755988 -11.211114 -1.309054 -4.911382 -2.128265 -10.174343 2.610889 48.604649 0.217422 3.375216 -41.702663 -3.740600 7.943810 
-0.375669 38.449356 3.752970 -5.507905 0.136719 -0.039062 45.561001 5.357405 -9.386573 9.744081 -0.249553 -10.625112 -8.544920 -0.009766 -0.009767 -3.667748 13.565411 9.064803 1.992188 -2.001953 0.000341 32.452648 -53.452728 -32.140362 -64.072159 -0.531347 8.707402 -11.365819 -36.533638 -136.279724 -2.001953 1.992188 0.000000 8.595777 84.058022 -15.401935 68.331177 0.487359 8.745515 20.280157 -37.297123 -94.288696 -42.650684 7.088674 -0.323951 59.814823 0.385277 -3.847542 -12.425364 -1.220242 -4.640251 -2.888367 -10.442181 2.879851 50.740227 0.099742 3.462266 -43.072670 -3.916676 8.251077 
-0.510907 37.455170 3.617734 -5.507905 0.136719 -0.039062 45.460503 4.935119 -4.625854 9.744081 -0.249553 -10.625112 -8.544920 -0.009766 -0.009767 -4.702745 11.516317 5.193803 1.992188 -2.001953 0.000341 28.699171 -56.671181 -28.956945 -65.658531 -0.526431 8.728822 -11.973414 -35.452812 -135.513443 -2.001953 1.992188 0.000000 14.861932 79.122124 -11.061735 68.135826 0.493965 8.733896 198.151825 216.441513 88.601601 -45.343357 6.882996 -0.307944 64.004509 0.686412 -3.965482 -13.918132 -1.125761 -4.423959 -4.645183 -10.686692 3.330702 54.592628 -0.107327 3.581388 -45.232063 -4.110016 8.580365 
